<?xml version="1.0" standalone="no"?>
<!DOCTYPE svg PUBLIC "-//W3C//DTD SVG 20010904//EN"
 "http://www.w3.org/TR/2001/REC-SVG-20010904/DTD/svg10.dtd">
<svg version="1.0" xmlns="http://www.w3.org/2000/svg"
 width="114.000000pt" height="100.000000pt" viewBox="0 0 114.000000 100.000000"
 preserveAspectRatio="xMidYMid meet">

<g transform="translate(0.000000,100.000000) scale(0.100000,-0.100000)"
fill="#000000" stroke="none">
<path d="M147 994 c-14 -14 -7 -35 11 -32 9 2 17 10 17 17 0 16 -18 25 -28 15z"/>
<path d="M211 869 c-24 -16 -49 -45 -56 -63 -16 -38 -55 -463 -55 -596 0 -74
3 -92 22 -120 58 -84 105 -93 468 -88 302 4 311 5 363 68 51 60 51 74 12 527
-16 181 -23 214 -58 251 -47 51 -56 52 -365 52 l-289 0 -42 -31z m181 -254 c5
-23 22 -57 39 -78 85 -103 246 -54 268 83 5 26 12 36 29 38 20 3 22 -1 22 -39
0 -55 -36 -117 -90 -154 -59 -41 -147 -46 -209 -13 -60 32 -103 94 -109 158
-5 50 -4 52 19 48 19 -2 25 -11 31 -43z"/>
<path d="M10 749 c-14 -25 -8 -44 19 -58 15 -8 24 -7 42 8 21 16 22 22 11 45
-15 33 -56 36 -72 5z"/>
<path d="M1056 493 c-3 -4 -6 -14 -6 -24 0 -11 -9 -19 -22 -21 -28 -4 -28 -20
1 -33 11 -5 21 -18 21 -27 0 -24 31 -23 37 1 3 11 13 21 24 24 25 7 25 37 -1
37 -13 0 -20 7 -20 19 0 19 -23 35 -34 24z"/>
</g>
</svg>
